<svg width="32" height="32" viewBox="0 0 32 32" fill="none" xmlns="http://www.w3.org/2000/svg"><path fill-rule="evenodd" clip-rule="evenodd" d="M28.1734 5.61613C22.4384 -1.10654 12.3394 -1.90718 5.61674 3.82785C-1.10593 9.56288 -1.90657 19.6618 3.82846 26.3845C9.56348 33.1071 19.6624 33.9078 26.3851 28.1728C33.1078 22.4378 33.9084 12.3388 28.1734 5.61613ZM20.2021 14.014C20.8188 14.014 21.2125 14.6822 20.9031 15.2155L20.8141 15.3689L14.7758 25.3035C14.6636 25.4882 14.4632 25.6008 14.2472 25.6008H13.6708C13.2758 25.6008 12.987 25.2279 13.086 24.8455L14.7244 18.5107C14.8554 18.0042 14.4731 17.5104 13.95 17.5104H11.4332C10.9101 17.5104 10.5278 17.0166 10.6587 16.5102L13.1311 6.94631C13.221 6.62445 13.5124 6.39787 13.8466 6.40166C13.8871 6.40213 13.9238 6.4028 13.9543 6.40376L16.4888 6.40372C16.9737 6.40349 17.3473 6.83117 17.282 7.31159L17.2664 7.42597L16.2998 13.0792C16.2163 13.5678 16.5926 14.014 17.0884 14.014H20.2021Z" fill="currentColor"/></svg>
